<?xml version="1.0" encoding="utf-8"?>
<!-- Generator: Adobe Illustrator 15.1.0, SVG Export Plug-In . SVG Version: 6.00 Build 0)  -->
<!DOCTYPE svg PUBLIC "-//W3C//DTD SVG 1.1//EN" "http://www.w3.org/Graphics/SVG/1.1/DTD/svg11.dtd">
<svg version="1.1" xmlns="http://www.w3.org/2000/svg" xmlns:xlink="http://www.w3.org/1999/xlink" x="0px" y="0px" width="320.5px"
	 height="170px" viewBox="0 0 320.5 170" enable-background="new 0 0 320.5 170" xml:space="preserve">
<g id="Layer_2" display="none">
	
		<rect x="189.167" y="44.758" display="inline" fill="#FFFFFF" stroke="#000000" stroke-miterlimit="10" width="14.163" height="27.333"/>
	
		<rect x="36.046" y="31.092" display="inline" fill="#FFFFFF" stroke="#000000" stroke-miterlimit="10" width="14.162" height="27.333"/>
</g>
<g id="Layer_1">
	<path fill="#FFFFFF" stroke="#000000" stroke-miterlimit="10" d="M259,137.5c23.515-0.131,51.626-18.887,51.626-42.255
		c0-23.449-19.154-42.459-42.781-42.459c-3.467,0-6.833,0.419-10.061,1.192c-6.473-20.487-35.151-35.932-69.558-35.932
		c-13.481,0-26.085,2.372-36.817,6.487c-8.311-9.491-20.508-15.493-34.115-15.493c-23.931,0-43.517,18.545-45.207,42.043
		c-6.265-4.698-13.886-7.463-22.115-7.463c-21.318,0-38.599,18.504-38.599,41.332c0,22.828,17.281,41.333,38.599,41.333
		c2.224,0,4.4-0.213,6.521-0.599C62.5,147,75.562,146.864,87.337,152.143"/>
	<path fill="#FFFFFF" stroke="#000000" stroke-miterlimit="10" d="M171.331,155.856c7.701-2.234,14.684-5.142,20.678-8.597
		c7.133,6.04,16.859,8.015,27.266,9.744C242.5,160.863,259,142,259,137.5"/>
	<path fill="#FFFFFF" stroke="#000000" stroke-miterlimit="10" d="M162.433,144.363"/>
	<path fill="#FFFFFF" stroke="#000000" stroke-miterlimit="10" d="M162.068,144.363"/>
	<path fill="#FFFFFF" stroke="#000000" stroke-miterlimit="10" d="M87.337,152.143c13.258,5.475,29.606,8.721,47.322,8.721
		c22.341,0,31.723-4.466,36.672-5.007"/>
</g>
</svg>
